{"title":"Doomsday.Preppers.S02E15 XviD 352p","uid":8226442,"size":368245744,"categoryP":"video","categoryS":"tv_shows","magnet":"?xt=urn:btih:76b3f6bcd058c6b8d7b2663bc1c0f47e17f695ea&amp;dn=Doomsday.Preppers.S02E15+XviD+352p&amp;tr=udp%3A%2F%2Ftracker.openbittorrent.com%3A80&amp;tr=udp%3A%2F%2Fopen.demonii.com%3A1337&amp;tr=udp%3A%2F%2Ftracker.coppersurfer.tk%3A6969&amp;tr=udp%3A%2F%2Fexodus.desync.com%3A6969","seeders":1,"leechers":0,"uploader":"k3nd00d","files":-1,"time":1362610084,"description":"For this episode 4 different encodes are being made available. Maybe it will help to see what is preferred based upon what gets more seeders and based upon comments.\n\nIf some of these encodes are not popular, they may be deleted after a few days.\n\nAll 4 different encodes of this episode can be found here:\n &lt;a href=&quot;\nhttp://thepiratebay.se/tag/Doomsday+Preppers+S02E15&quot; rel=&quot;nofollow&quot; target=&quot;_NEW&quot;&gt;\nhttp://thepiratebay.se/tag/Doomsday+Preppers+S02E15&lt;/a&gt;\n\n\nGeneral\nComplete name                    : Doomsday.Preppers.S02E15.A.Fortress.at.Sea.HDTV.XviD-k3n.avi\nFormat                           : AVI\nFormat/Info                      : Audio Video Interleave\nFile size                        : 349 MiB\nDuration                         : 45mn 9s\nOverall bit rate                 : 1 082 Kbps\nWriting library                  : TMPGEnc 4.0 XPress Version. 4.6.3.268\n\nVideo\nID                               : 0\nFormat                           : MPEG-4 Visual\nFormat profile                   : Advanced Simple@L5\nFormat settings, BVOP            : 1\nFormat settings, QPel            : No\nFormat settings, GMC             : No warppoints\nFormat settings, Matrix          : Default (H.263)\nMuxing mode                      : Packed bitstream\nCodec ID                         : XVID\nCodec ID/Hint                    : XviD\nDuration                         : 45mn 9s\nBit rate                         : 970 Kbps\nWidth                            : 640 pixels\nHeight                           : 352 pixels\nDisplay aspect ratio             : 16:9\nFrame rate                       : 29.970 fps\nColor space                      : YUV\nChroma subsampling               : 4:2:0\nBit depth                        : 8 bits\nScan type                        : Progressive\nCompression mode                 : Lossy\nBits/(Pixel*Frame)               : 0.144\nStream size                      : 313 MiB (90%)\nWriting library                  : XviD 1.2.0.dev47 (UTC 2006-11-01)\n\nAudio\nID                               : 1\nFormat                           : MPEG Audio\nFormat version                   : Version 1\nFormat profile                   : Layer 3\nMode                             : Joint stereo\nMode extension                   : MS Stereo\nCodec ID                         : 55\nCodec ID/Hint                    : MP3\nDuration                         : 45mn 9s\nBit rate mode                    : Constant\nBit rate                         : 96.0 Kbps\nChannel(s)                       : 2 channels\nSampling rate                    : 44.1 KHz\nCompression mode                 : Lossy\nStream size                      : 31.0 MiB (9%)\nAlignment                        : Aligned on interleaves\nInterleave, duration             : 34 ms (1.01 video frame)\nInterleave, preload duration     : 418 ms\n","torrent":{"xt":"urn:btih:76b3f6bcd058c6b8d7b2663bc1c0f47e17f695ea","amp;dn":"Doomsday.Preppers.S02E15+XviD+352p","amp;tr":["udp%3A%2F%2Ftracker.openbittorrent.com%3A80","udp%3A%2F%2Fopen.demonii.com%3A1337","udp%3A%2F%2Ftracker.coppersurfer.tk%3A6969","udp%3A%2F%2Fexodus.desync.com%3A6969"],"infoHash":"76b3f6bcd058c6b8d7b2663bc1c0f47e17f695ea","infoHashBuffer":{"type":"Buffer","data":[118,179,246,188,208,88,198,184,215,178,102,59,193,192,244,126,23,246,149,234]},"announce":[],"urlList":[]}}